<?xml version="1.0" encoding="UTF-8" standalone="no"?>
<svg
   xmlns:dc="http://purl.org/dc/elements/1.1/"
   xmlns:cc="http://creativecommons.org/ns#"
   xmlns:rdf="http://www.w3.org/1999/02/22-rdf-syntax-ns#"
   xmlns:svg="http://www.w3.org/2000/svg"
   xmlns="http://www.w3.org/2000/svg"
   id="svg1712"
   version="1.1"
   viewBox="0 0 100 100"
   height="100"
   width="100">
  <defs
     id="defs1706" />
  <metadata
     id="metadata1709">
    <rdf:RDF>
      <cc:Work
         rdf:about="">
        <dc:format>image/svg+xml</dc:format>
        <dc:type
           rdf:resource="http://purl.org/dc/dcmitype/StillImage" />
        <dc:title></dc:title>
      </cc:Work>
    </rdf:RDF>
  </metadata>
  <g
     transform="translate(0,-1022.5197)"
     id="layer1">
    <g
       id="g1656"
       transform="matrix(0.5790867,0,0,-0.5790867,-28.552532,1143.9055)">
      <path
         id="path404"
         style="fill:#f4802b;fill-opacity:1;fill-rule:nonzero;stroke:none;stroke-width:0.1"
         d="m 81.0055,139.629 c 0,0 -7.4024,34.113 -2.8953,36.356 4.5066,2.243 33.2478,-4.519 33.9508,-7.751 0.703,-3.233 -31.0555,-28.605 -31.0555,-28.605" />
      <path
         id="path406"
         style="fill:#f25a4d;fill-opacity:1;fill-rule:nonzero;stroke:none;stroke-width:0.1"
         d="m 84.2273,145.737 c 0,0 -3.5519,18.876 -0.88,21.028 4.7562,3.831 19.9237,-2.093 19.9237,-2.093 0,0 -12.7487,-10.143 -19.0437,-18.935" />
      <path
         id="path408"
         style="fill:#f4802b;fill-opacity:1;fill-rule:nonzero;stroke:none;stroke-width:0.1"
         d="m 190.293,139.629 c 0,0 7.402,34.113 2.895,36.356 -4.507,2.243 -33.248,-4.519 -33.951,-7.751 -0.703,-3.233 31.056,-28.605 31.056,-28.605" />
      <path
         id="path410"
         style="fill:#f25a4d;fill-opacity:1;fill-rule:nonzero;stroke:none;stroke-width:0.1"
         d="m 187.071,145.737 c 0,0 3.552,18.876 0.88,21.028 -4.756,3.831 -19.924,-2.093 -19.924,-2.093 0,0 12.749,-10.143 19.044,-18.935" />
      <path
         id="path412"
         style="fill:#f78e34;fill-opacity:1;fill-rule:nonzero;stroke:none;stroke-width:0.1"
         d="m 111.195,168.341 4.322,1.673 c 14.174,5.486 29.915,5.311 43.964,-0.489 l 0.941,-0.388 c 21.585,-8.913 35.667,-29.961 35.667,-53.314 v 0 c 0,-25.2449 -20.464,-45.7089 -45.709,-45.7089 h -29.462 c -25.2446,0 -45.709,20.464 -45.709,45.7089 v 0 c 0,23.257 14.2969,44.122 35.986,52.518" />
      <path
         id="path414"
         style="fill:#f2533d;fill-opacity:1;fill-rule:nonzero;stroke:none;stroke-width:0.1"
         d="m 142.078,111.332 v 0 0 c -0.002,0.343 -0.192,0.665 -0.505,0.824 v 0 0 c -0.054,0.028 -0.109,0.054 -0.17,0.071 -0.976,0.397 -6.3,1.791 -11.233,0.076 -0.318,-0.135 -0.639,-0.303 -0.662,-0.316 l -0.001,-0.029 c -0.315,-0.317 -0.456,-0.525 -0.144,-1.246 0,0 1.173,-4.299 5.849,-6.533 0,0 0.446,-0.337 0.881,-0.006 0,0 4.946,1.897 5.905,6.771 0.059,0.126 0.081,0.257 0.08,0.388" />
      <path
         id="path416"
         style="fill:#ee7b26;fill-opacity:1;fill-rule:nonzero;stroke:none;stroke-width:0.1"
         d="m 105.41,111.58 c 0,-3.457 -2.803,-6.26 -6.26,-6.26 -3.457,0 -6.2598,2.803 -6.2598,6.26 0,3.457 2.8028,6.26 6.2598,6.26 3.457,0 6.26,-2.803 6.26,-6.26" />
      <path
         id="path418"
         style="fill:#ee7b26;fill-opacity:1;fill-rule:nonzero;stroke:none;stroke-width:0.1"
         d="m 165.92,111.58 c 0,-3.457 2.802,-6.26 6.26,-6.26 3.457,0 6.259,2.803 6.259,6.26 0,3.457 -2.802,6.26 -6.259,6.26 -3.458,0 -6.26,-2.803 -6.26,-6.26" />
      <path
         id="path420"
         style="fill:#f2533d;fill-opacity:1;fill-rule:nonzero;stroke:none;stroke-width:0.1"
         d="m 123.385,93.3902 c 0,0 -0.025,0.125 -0.073,0.359 -0.021,0.118 -0.047,0.2617 -0.077,0.4321 -0.005,0.1886 0.002,0.4128 0.017,0.6718 0.043,0.509 0.15,1.1 0.432,1.741 0.259,0.6508 0.678,1.3207 1.222,1.9809 0.563,0.625 1.234,1.2711 2.029,1.795 0.786,0.551 1.678,1.005 2.63,1.395 0.958,0.359 1.973,0.687 3.026,0.854 1.05,0.213 2.133,0.27 3.211,0.294 0.63,-0.029 0.981,-0.025 1.564,-0.076 0.558,-0.064 1.131,-0.119 1.644,-0.229 1.051,-0.178 2.068,-0.493 3.022,-0.862 0.951,-0.387 1.843,-0.843 2.627,-1.394 0.796,-0.518 1.466,-1.1641 2.03,-1.7872 0.548,-0.6539 0.963,-1.3257 1.23,-1.9707 0.287,-0.632 0.397,-1.2421 0.441,-1.7261 0.016,-0.2461 0.022,-0.4621 0.021,-0.6469 -0.027,-0.1859 -0.049,-0.3441 -0.067,-0.4719 -0.044,-0.248 -0.068,-0.3793 -0.068,-0.3793 -0.027,-0.1519 -0.172,-0.2527 -0.323,-0.2258 -0.1,0.018 -0.177,0.086 -0.211,0.1739 l -0.02,0.0519 c 0,0 -0.044,0.1121 -0.125,0.3231 -0.037,0.1011 -0.083,0.2261 -0.136,0.3718 -0.081,0.1383 -0.167,0.2942 -0.253,0.4653 -0.19,0.3371 -0.474,0.7051 -0.83,1.0808 -0.351,0.3789 -0.832,0.7293 -1.353,1.0832 -0.556,0.3278 -1.15,0.67 -1.851,0.9329 -0.679,0.289 -1.442,0.507 -2.228,0.714 -0.803,0.1699 -1.627,0.3539 -2.493,0.4289 -0.436,0.0703 -0.837,0.0692 -1.251,0.1051 -0.389,0.0359 -1.021,0.0301 -1.37,0.0441 -0.882,-0.016 -1.763,-0.057 -2.62,-0.1609 -0.863,-0.0863 -1.69,-0.257 -2.488,-0.4371 -0.786,-0.202 -1.548,-0.4231 -2.225,-0.7109 -0.702,-0.259 -1.296,-0.6 -1.852,-0.925 -0.525,-0.3493 -1.002,-0.7012 -1.361,-1.0743 -0.36,-0.3668 -0.648,-0.7539 -0.839,-1.066 -0.087,-0.157 -0.172,-0.3058 -0.257,-0.4398 -0.057,-0.1621 -0.106,-0.3012 -0.146,-0.4129 -0.085,-0.2231 -0.13,-0.343 -0.13,-0.343 -0.051,-0.134 -0.201,-0.2023 -0.336,-0.1512 -0.086,0.0329 -0.145,0.1083 -0.163,0.1922" />
      <path
         id="path422"
         style="fill:#3c372f;fill-opacity:1;fill-rule:nonzero;stroke:none;stroke-width:0.1"
         d="m 127.126,130.935 c 0,-8.031 -6.511,-14.542 -14.543,-14.542 -8.032,0 -14.5424,6.511 -14.5424,14.542 0,8.032 6.5104,14.543 14.5424,14.543 8.032,0 14.543,-6.511 14.543,-14.543" />
      <path
         id="path424"
         style="fill:#f2e9dd;fill-opacity:1;fill-rule:nonzero;stroke:none;stroke-width:0.1"
         d="m 121.336,135.312 c 0,-2.417 -1.96,-4.377 -4.377,-4.377 -2.416,0 -4.376,1.96 -4.376,4.377 0,2.417 1.96,4.376 4.376,4.376 2.417,0 4.377,-1.959 4.377,-4.376" />
      <path
         id="path426"
         style="fill:#f2e9dd;fill-opacity:1;fill-rule:nonzero;stroke:none;stroke-width:0.1"
         d="m 108.207,130.794 c 0,-1.208 -0.98,-2.188 -2.188,-2.188 -1.209,0 -2.188,0.98 -2.188,2.188 0,1.209 0.979,2.189 2.188,2.189 1.208,0 2.188,-0.98 2.188,-2.189" />
      <path
         id="path428"
         style="fill:#3c372f;fill-opacity:1;fill-rule:nonzero;stroke:none;stroke-width:0.1"
         d="m 173.226,130.935 c 0,-8.031 -6.511,-14.542 -14.542,-14.542 -8.032,0 -14.543,6.511 -14.543,14.542 0,8.032 6.511,14.543 14.543,14.543 8.031,0 14.542,-6.511 14.542,-14.543" />
      <path
         id="path430"
         style="fill:#f2e9dd;fill-opacity:1;fill-rule:nonzero;stroke:none;stroke-width:0.1"
         d="m 167.436,135.312 c 0,-2.417 -1.959,-4.377 -4.376,-4.377 -2.417,0 -4.376,1.96 -4.376,4.377 0,2.417 1.959,4.376 4.376,4.376 2.417,0 4.376,-1.959 4.376,-4.376" />
      <path
         id="path432"
         style="fill:#f2e9dd;fill-opacity:1;fill-rule:nonzero;stroke:none;stroke-width:0.1"
         d="m 154.307,130.794 c 0,-1.208 -0.979,-2.188 -2.188,-2.188 -1.208,0 -2.188,0.98 -2.188,2.188 0,1.209 0.98,2.189 2.188,2.189 1.209,0 2.188,-0.98 2.188,-2.189" />
    </g>
  </g>
</svg>
